{"title":"Snapper Hero Snapchat Session 4 (03/17/2015) (Unedited)","uid":11763282,"size":40166665,"categoryP":"video","categoryS":"handheld","magnet":"?xt=urn:btih:6bd6831ad193fa052f92ed2124a906b0e3c27dc4&amp;dn=Snapper+Hero+Snapchat+Session+4+%2803%2F17%2F2015%29+%28Unedited%29&amp;tr=udp%3A%2F%2Ftracker.openbittorrent.com%3A80&amp;tr=udp%3A%2F%2Fopen.demonii.com%3A1337&amp;tr=udp%3A%2F%2Ftracker.coppersurfer.tk%3A6969&amp;tr=udp%3A%2F%2Fexodus.desync.com%3A6969","seeders":0,"leechers":1,"uploader":"geiszla","files":31,"time":1426652825,"description":"Episode 4 from Snapper Hero (03/17/2015)\n\nTech Specs:\nGeneral\nComplete name                  : C:[...]snapperhero-18-03-2015-06_09_51.mov\nFormat                         : MPEG-4\nFormat profile                 : Base Media / Version 2\nCodec ID                       : mp42\nFile size                      : 721 KiB\nDuration                       : 3s 833ms\nOverall bit rate               : 1 541 Kbps\nEncoded date                   : UTC 2015-03-17 20:00:20\nTagged date                    : UTC 2015-03-17 20:00:20\n\nVideo\nID                             : 2\nFormat                         : AVC\nFormat/Info                    : Advanced Video Codec\nFormat profile                 : &lt;a class=&quot;__cf_email__&quot; href=&quot;/cdn-cgi/l/email-protection&quot; data-cfemail=&quot;430b2a242b030f706d73&quot;&gt;[email&amp;#160;protected]&lt;/a&gt;&lt;script cf-hash='f9e31' type=&quot;text/javascript&quot;&gt;\n/* &lt;![CDATA[ */!function(){try{var t=&quot;currentScript&quot;in document?document.currentScript:function(){for(var t=document.getElementsByTagName(&quot;script&quot;),e=t.length;e--;)if(t[e].getAttribute(&quot;cf-hash&quot;))return t[e]}();if(t&amp;&amp;t.previousSibling){var e,r,n,i,c=t.previousSibling,a=c.getAttribute(&quot;data-cfemail&quot;);if(a){for(e=&quot;&quot;,r=parseInt(a.substr(0,2),16),n=2;a.length-n;n+=2)i=parseInt(a.substr(n,2),16)^r,e+=String.fromCharCode(i);e=document.createTextNode(e),c.parentNode.replaceChild(e,c)}}}catch(u){}}();/* ]]&gt; */&lt;/script&gt;\nFormat settings, CABAC         : Yes\nFormat settings, ReFrames      : 2 frames\nCodec ID                       : avc1\nCodec ID/Info                  : Advanced Video Coding\nDuration                       : 3s 833ms\nBit rate                       : 1 272 Kbps\nWidth                          : 376 pixels\nHeight                         : 668 pixels\nDisplay aspect ratio           : 0.563\nFrame rate mode                : Constant\nFrame rate                     : 30.000 fps\nColor space                    : YUV\nChroma subsampling             : 4:2:0\nBit depth                      : 8 bits\nScan type                      : Progressive\nBits/(Pixel*Frame)             : 0.169\nStream size                    : 595 KiB (83%)\nTitle                          : Core Media Video\nEncoded date                   : UTC 2015-03-17 20:00:20\nTagged date                    : UTC 2015-03-17 20:00:20\nColor primaries                : BT.709\nTransfer characteristics       : BT.709\nMatrix coefficients            : BT.601\nColor range                    : Limited\n\nAudio\nID                             : 1\nFormat                         : AAC\nFormat/Info                    : Advanced Audio Codec\nFormat profile                 : LC\nCodec ID                       : 40\nDuration                       : 3s 823ms\nSource duration                : 3s 878ms\nBit rate mode                  : Constant\nBit rate                       : 256 Kbps\nChannel(s)                     : 2 channels\nChannel positions              : Front: L R\nSampling rate                  : 44.1 KHz\nCompression mode               : Lossy\nStream size                    : 120 KiB (17%)\nSource stream size             : 122 KiB (17%)\nTitle                          : Core Media Audio\nEncoded date                   : UTC 2015-03-17 20:00:20\nTagged date                    : UTC 2015-03-17 20:00:20\n\nNote: I just uploaded this torrent for those who are not able to watch it on snapchat. Please do it, if you can!","torrent":{"xt":"urn:btih:6bd6831ad193fa052f92ed2124a906b0e3c27dc4","amp;dn":"Snapper+Hero+Snapchat+Session+4+%2803%2F17%2F2015%29+%28Unedited%29","amp;tr":["udp%3A%2F%2Ftracker.openbittorrent.com%3A80","udp%3A%2F%2Fopen.demonii.com%3A1337","udp%3A%2F%2Ftracker.coppersurfer.tk%3A6969","udp%3A%2F%2Fexodus.desync.com%3A6969"],"infoHash":"6bd6831ad193fa052f92ed2124a906b0e3c27dc4","infoHashBuffer":{"type":"Buffer","data":[107,214,131,26,209,147,250,5,47,146,237,33,36,169,6,176,227,194,125,196]},"announce":[],"urlList":[]}}